<mxfile host="app.diagrams.net" modified="2023-08-29T11:41:24.913Z" agent="Mozilla/5.0 (Windows NT 10.0; Win64; x64) AppleWebKit/537.36 (KHTML, like Gecko) Chrome/116.0.0.0 Safari/537.36" etag="N3HgdCuDCYZGBFkCNLZK" version="21.6.9" type="device">
  <diagram name="Página-1" id="k1V84riBm_eqYT8g7Hv-">
    <mxGraphModel dx="600" dy="328" grid="1" gridSize="10" guides="1" tooltips="1" connect="1" arrows="1" fold="1" page="1" pageScale="1" pageWidth="827" pageHeight="1169" math="0" shadow="0">
      <root>
        <mxCell id="0" />
        <mxCell id="1" parent="0" />
        <mxCell id="w_2Qil6N2FqpRIizmzFx-1" value="Arara" style="swimlane;fontStyle=1;align=center;verticalAlign=top;childLayout=stackLayout;horizontal=1;startSize=26;horizontalStack=0;resizeParent=1;resizeParentMax=0;resizeLast=0;collapsible=1;marginBottom=0;whiteSpace=wrap;html=1;" vertex="1" parent="1">
          <mxGeometry x="330" y="280" width="160" height="200" as="geometry" />
        </mxCell>
        <mxCell id="w_2Qil6N2FqpRIizmzFx-2" value="+ cor: string&lt;br&gt;+ alimentação: string&lt;br&gt;+ tamanho: decimal&lt;br&gt;+peso: decimal&lt;br&gt;+ especie: string&lt;br&gt;+ som: string&lt;br&gt;+Habitat: string" style="text;strokeColor=none;fillColor=none;align=left;verticalAlign=top;spacingLeft=4;spacingRight=4;overflow=hidden;rotatable=0;points=[[0,0.5],[1,0.5]];portConstraint=eastwest;whiteSpace=wrap;html=1;" vertex="1" parent="w_2Qil6N2FqpRIizmzFx-1">
          <mxGeometry y="26" width="160" height="114" as="geometry" />
        </mxCell>
        <mxCell id="w_2Qil6N2FqpRIizmzFx-3" value="" style="line;strokeWidth=1;fillColor=none;align=left;verticalAlign=middle;spacingTop=-1;spacingLeft=3;spacingRight=3;rotatable=0;labelPosition=right;points=[];portConstraint=eastwest;strokeColor=inherit;" vertex="1" parent="w_2Qil6N2FqpRIizmzFx-1">
          <mxGeometry y="140" width="160" height="8" as="geometry" />
        </mxCell>
        <mxCell id="w_2Qil6N2FqpRIizmzFx-4" value="+ voar ( ) :void&lt;br&gt;+ comer ( ): void&lt;br&gt;+ tamarelar( ):void" style="text;strokeColor=none;fillColor=none;align=left;verticalAlign=top;spacingLeft=4;spacingRight=4;overflow=hidden;rotatable=0;points=[[0,0.5],[1,0.5]];portConstraint=eastwest;whiteSpace=wrap;html=1;" vertex="1" parent="w_2Qil6N2FqpRIizmzFx-1">
          <mxGeometry y="148" width="160" height="52" as="geometry" />
        </mxCell>
      </root>
    </mxGraphModel>
  </diagram>
</mxfile>
